<svg width="250" height="600" viewBox="0 0 250 600" xmlns="http://www.w3.org/2000/svg">
  {/* Sidebar Background */}
  <rect width="100%" height="100%" fill="hsl(var(--primary-foreground))" />

  {/* Logo Placeholder */}
  <rect x="20" y="20" width="210" height="40" rx="4" ry="4" fill="#3b3f47" />

  {/* Menu Items */}
  <rect x="20" y="80" width="210" height="40" rx="4" ry="4" fill="#2a2d35" />
  <rect x="30" y="95" width="20" height="10" rx="2" ry="2" fill="#4b5563" />
  <rect x="60" y="95" width="100" height="10" rx="2" ry="2" fill="#4b5563" />

  <rect x="20" y="130" width="210" height="40" rx="4" ry="4" fill="#2a2d35" />
  <rect x="30" y="145" width="20" height="10" rx="2" ry="2" fill="#4b5563" />
  <rect x="60" y="145" width="120" height="10" rx="2" ry="2" fill="#4b5563" />

  <rect x="20" y="180" width="210" height="40" rx="4" ry="4" fill="#2a2d35" />
  <rect x="30" y="195" width="20" height="10" rx="2" ry="2" fill="#4b5563" />
  <rect x="60" y="195" width="90" height="10" rx="2" ry="2" fill="#4b5563" />

  <rect x="20" y="230" width="210" height="40" rx="4" ry="4" fill="#2a2d35" />
  <rect x="30" y="245" width="20" height="10" rx="2" ry="2" fill="#4b5563" />
  <rect x="60" y="245" width="110" height="10" rx="2" ry="2" fill="#4b5563" />

  {/* Divider */}
  <rect x="20" y="290" width="210" height="2" fill="#3b3f47" />

  {/* Sub-menu Items */}
  <rect x="20" y="312" width="210" height="30" rx="4" ry="4" fill="#2a2d35" />
  <rect x="30" y="322" width="140" height="10" rx="2" ry="2" fill="#4b5563" />

  <rect x="20" y="352" width="210" height="30" rx="4" ry="4" fill="#2a2d35" />
  <rect x="30" y="362" width="120" height="10" rx="2" ry="2" fill="#4b5563" />

  {/* User Profile Placeholder */}
  <rect x="20" y="540" width="210" height="40" rx="20" ry="20" fill="#3b3f47" />
  <circle cx="40" cy="560" r="15" fill="#2a2d35" />
  <rect x="65" y="550" width="100" height="10" rx="2" ry="2" fill="#4b5563" />
  <rect x="65" y="565" width="80" height="8" rx="2" ry="2" fill="#4b5563" />
</svg>