<svg width="600" height="300" viewBox="0 0 600 300" xmlns="http://www.w3.org/2000/svg">
  {/* Table Background */}
  <rect width="100%" height="100%" fill="hsl(var(--primary-foreground))" />

  {/* Table Header */}
  <rect x="10" y="10" width="580" height="40" fill="#3b3f47" />
  <rect x="20" y="25" width="100" height="10" rx="2" ry="2" fill="#6b7280" />
  <rect x="140" y="25" width="100" height="10" rx="2" ry="2" fill="#6b7280" />
  <rect x="260" y="25" width="100" height="10" rx="2" ry="2" fill="#6b7280" />
  <rect x="380" y="25" width="100" height="10" rx="2" ry="2" fill="#6b7280" />

  {/* Table Rows */}
  <rect x="10" y="60" width="580" height="40" fill="#2a2d35" />
  <rect x="20" y="75" width="80" height="10" rx="2" ry="2" fill="#4b5563" />
  <rect x="140" y="75" width="90" height="10" rx="2" ry="2" fill="#4b5563" />
  <rect x="260" y="75" width="85" height="10" rx="2" ry="2" fill="#4b5563" />
  <rect x="380" y="75" width="95" height="10" rx="2" ry="2" fill="#4b5563" />

  <rect x="10" y="110" width="580" height="40" fill="#2a2d35" />
  <rect x="20" y="125" width="75" height="10" rx="2" ry="2" fill="#4b5563" />
  <rect x="140" y="125" width="95" height="10" rx="2" ry="2" fill="#4b5563" />
  <rect x="260" y="125" width="80" height="10" rx="2" ry="2" fill="#4b5563" />
  <rect x="380" y="125" width="90" height="10" rx="2" ry="2" fill="#4b5563" />

  <rect x="10" y="160" width="580" height="40" fill="#2a2d35" />
  <rect x="20" y="175" width="85" height="10" rx="2" ry="2" fill="#4b5563" />
  <rect x="140" y="175" width="85" height="10" rx="2" ry="2" fill="#4b5563" />
  <rect x="260" y="175" width="90" height="10" rx="2" ry="2" fill="#4b5563" />
  <rect x="380" y="175" width="85" height="10" rx="2" ry="2" fill="#4b5563" />

  <rect x="10" y="210" width="580" height="40" fill="#2a2d35" />
  <rect x="20" y="225" width="70" height="10" rx="2" ry="2" fill="#4b5563" />
  <rect x="140" y="225" width="100" height="10" rx="2" ry="2" fill="#4b5563" />
  <rect x="260" y="225" width="75" height="10" rx="2" ry="2" fill="#4b5563" />
  <rect x="380" y="225" width="100" height="10" rx="2" ry="2" fill="#4b5563" />
</svg>